<?xml version="1.0" encoding="utf-8"?>
<!-- Generator: Adobe Illustrator 26.0.2, SVG Export Plug-In . SVG Version: 6.00 Build 0)  -->
<svg version="1.1" id="Layer_1" xmlns="http://www.w3.org/2000/svg" xmlns:xlink="http://www.w3.org/1999/xlink" x="0px" y="0px"
	 viewBox="0 0 3234.4 670.2" style="enable-background:new 0 0 3234.4 670.2;" xml:space="preserve">
<style type="text/css">
	.st0{fill:#ED1E24;}
	.st1{stroke:#000000;stroke-miterlimit:10;}
	.st2{stroke:#E9D700;stroke-width:0.648;stroke-miterlimit:10;}
	.st3{fill:#C9BB00;}
	.st4{fill:#E9D700;}
	.st5{fill:#FFF100;}
	.st6{fill:none;stroke:#FFFFFF;stroke-width:10;stroke-miterlimit:10;}
	.st7{fill:#FFFFFF;}
</style>
<path d="M609,126.4h2543.9c44.9,0,81.5,37.2,81.5,83.1v249.3c0,45.8-36.5,83.1-81.5,83.1H609c-44.9,0-81.5-37.2-81.5-83.1V209.5
	C527.5,163.6,564.1,126.4,609,126.4z"/>
<ellipse class="st0" cx="334.3" cy="334.1" rx="280.5" ry="286.6"/>
<path class="st1" d="M644.7,273.4c-8-40.9-24-79.8-47.1-114.5c-1.1-10.7-0.2-21.5,2.6-31.9l-57-57c-10.2,2.8-20.8,3.7-31.3,2.7
	c-35.2-23.8-74.8-40.3-116.5-48.4c-8-6.7-14.8-14.7-19.9-23.8h-80.7c-5.2,9.1-11.9,17.1-19.9,23.8c-41.8,8-81.4,24.5-116.6,48.4
	c-10.5,1-21.1,0.1-31.3-2.7l-57,57c2.8,10.4,3.7,21.2,2.6,31.9c-23.2,34.6-39.2,73.6-47.1,114.5c-6.9,8.6-15.4,15.9-25,21.4v80.7
	c9.9,5.6,18.5,13.1,25.5,22.1c8.2,39.6,23.8,77.3,46.2,111c1.5,11.6,0.7,23.3-2.3,34.6l57,57c11.5-3.1,23.4-3.8,35.2-2.2
	c33.1,21.8,70,37,108.8,45c8,6.2,17.1,15,23.7,26.7h80.7c5.9-10.4,14-19.5,23.6-26.7c38.8-8,75.7-23.3,108.8-45
	c11.8-1.6,23.8-0.9,35.3,2.2l57-57c-3-11.3-3.8-23-2.3-34.6c22.4-33.7,38.1-71.4,46.2-111c7-9,15.6-16.5,25.5-22.1v-80.7
	C660,289.2,651.6,282,644.7,273.4z M333.9,612.9c-153.4,0-277.8-124.4-277.8-277.8S180.5,57.3,333.9,57.3s277.8,124.4,277.8,277.8
	S487.3,612.9,333.9,612.9z"/>
<ellipse class="st2" cx="335.8" cy="335.5" rx="251.7" ry="251.7"/>
<circle class="st0" cx="336" cy="337.5" r="132.3"/>
<path class="st3" d="M318.5,390L318.5,390l40.5,3c0,0-19.3,55-5.6,148.7c0,0-93.3-133.8-96.7-188.9l56.2,13.9L318.5,390z"/>
<path class="st4" d="M326.7,400.3l13.6,20.9l33.3-0.4c0,0-23.1-138.9,79.2-236.7l-53.2-28.2C399.6,155.6,290.6,297.4,326.7,400.3z"
	/>
<path class="st5" d="M278.3,369c0,0-35-70.9-37.9-155.1l159.3-58.1c0,0-89.6,131.9-59.3,265.4c0,0-14.5-6.7-21.9-16.3
	c0,0,0.4,69.4,34.9,136.9c0,0-96-114.5-96.7-188.9L278.3,369z"/>
<circle class="st6" cx="332.9" cy="334" r="295.4"/>
<g>
	<path class="st7" d="M772.5,261.2v57.3c0,6.3-2.5,12.3-7,16.6c-4.4,4.6-10.6,7.1-17,7h-38.4v105h-33v-210h71.4
		c5.9-0.1,11.6,2,15.9,6c4.3,3.9,7.1,9.2,7.8,15L772.5,261.2z M739.5,270.2h-29.4v39h29.4V270.2z"/>
	<path class="st7" d="M870.6,237.2c11.4,2.2,19.7,12.1,19.8,23.7v162.9c0.1,5.6-2,11.1-5.7,15.3c-3.6,4.3-8.6,7.1-14.1,8.1h-55.5
		c-5.5-0.9-10.5-3.8-14.1-8.1c-3.7-4.2-5.8-9.7-5.7-15.3V261c0.1-11.6,8.4-21.5,19.8-23.7H870.6z M857.4,292.4v-22.1h-29.1v144h29.1
		V292.4z"/>
	<path class="st7" d="M1065.9,237.2l-25.5,204.6l-0.6,5.4h-39.3l-0.6-5.1l-10.2-57.6l-9.9,57.6l-0.9,5.1h-39.3l-0.6-5.4l-25.8-204.6
		h33.6l14.1,122.1l15-77.4l0.9-4.8h28.5l0.9,4.8l12.6,74.7l13.8-119.4H1065.9L1065.9,237.2z"/>
	<path class="st7" d="M1171.5,237.2v33h-52.8v39.3h42v33h-42v71.7h52.8v33h-85.8V309.6h33l-33-65.1v-7.2H1171.5z"/>
	<path class="st7" d="M1296.9,447.2H1265l-38-138h29.4v-39H1227v39l-33-65.1v-6.9h71.6c5.9-0.1,11.6,2,15.9,6
		c4.4,3.9,7.1,9.2,7.8,15l0.3,60v0.3c0.1,5.9-2.2,11.5-6.2,15.8c-3.9,4.4-9.2,7.2-14.9,8L1296.9,447.2z M1194,309.2h33v138h-33
		V309.2z"/>
	<path class="st7" d="M1465.5,447.2h-30.3l-37.8-138h29.4v-39h-29.4v177h-33v-210h71.4c5.9-0.1,11.6,2,15.9,6
		c4.3,3.9,7.1,9.2,7.8,15l0.3,3v57c0.1,5.9-2.1,11.7-6.2,16c-3.8,4.4-9.1,7.2-14.8,8L1465.5,447.2z"/>
	<path class="st7" d="M1590.9,447.2h-33.6l-20.7-145.8l-8.4,68.7v0.3h8.4v33h-13.7l-6.9,43.8h-33.1l6.9-43.8h-7.5v-33h12.8
		l21.2-133.2h40.7L1590.9,447.2z"/>
	<path class="st7" d="M1701.9,237.2v210h-33l-30-93.9v93.9h-33v-210h33v0.6l30,99v-99.6H1701.9z"/>
	<path class="st7" d="M1786.8,293.1v-22.8h-29.4v144h29.4V342H1773v-33h46.8v114.6c0.1,5.7-2,11.2-5.7,15.4
		c-3.7,4.4-8.8,7.3-14.4,8.2h-55.2c-5.6-0.9-10.7-3.8-14.4-8.1c-3.7-4.2-5.8-9.7-5.7-15.3V261c0-5.7,2-11.2,5.7-15.5
		c3.6-4.4,8.8-7.3,14.4-8.2h55.2c5.6,0.9,10.8,3.8,14.4,8.2c3.7,4.3,5.7,9.8,5.7,15.5v32.1H1786.8z"/>
	<path class="st7" d="M1928.1,237.2v33h-52.8v39.3h42v33h-42v71.7h52.8v33h-85.8V309.6h33l-33-65.1v-7.2H1928.1L1928.1,237.2z"/>
	<path class="st7" d="M2053.5,447.2h-31.9l-38-138h29.4v-39h-29.4v39l-33-65.1v-6.9h71.6c5.9-0.1,11.6,2,15.9,6
		c4.4,3.9,7.1,9.2,7.8,15l0.3,60v0.3c0.1,5.9-2.2,11.5-6.2,15.8c-3.9,4.4-9.2,7.2-14.9,8L2053.5,447.2z M1950.6,309.2h33v138h-33
		V309.2z"/>
	<path class="st7" d="M2152.8,247.1c4.7,5.4,7.2,12.3,7.2,19.5v28.5h-33v-24.9h-25.5v39h28.3c8-0.2,15.8,3,21.4,8.7
		c5.7,5.6,8.9,13.3,8.8,21.2v78.4c0.1,14.7-10.7,27.2-25.2,29.3l-0.6,0.3h-39.9l-0.6-0.3c-14.5-2.2-25.3-14.7-25.2-29.4v-28.4h33
		v25.2h25.5v-72h-28.5c-16.4,0.2-29.8-13-30-29.4c0-0.2,0-0.4,0-0.6v-45.6c-0.1-14.7,10.7-27.2,25.2-29.4h41.1
		C2141.8,238.4,2148.1,241.9,2152.8,247.1z"/>
	<path class="st7" d="M2330.4,236.6v180.9c0.2,7.2-2.4,14.1-7.2,19.5c-4.5,5.4-10.8,8.9-17.7,9.9l-0.6,0.3h-44.4l-0.6-0.3
		c-6.9-1-13.3-4.5-17.7-9.9c-4.8-5.4-7.4-12.3-7.2-19.5V236.6h33v177.6h29.4V236.6H2330.4z"/>
	<path class="st7" d="M2448.9,237.2v210h-33l-30-93.9v93.9h-33v-210h33v0.6l30,99v-99.6H2448.9z"/>
	<path class="st7" d="M2556.6,414.2v33h-85.2v-210h33v177H2556.6z"/>
	<path class="st7" d="M2579.7,447.2v-210h33v210H2579.7z"/>
	<path class="st7" d="M2766.6,237.2v210h-33V334.5l-18.3,97.2h-28.8l-18.3-97.2v112.8h-33v-210h51.3l14.4,83.7l14.4-83.7
		L2766.6,237.2z"/>
	<path class="st7" d="M2789.1,447.2v-210h33v210H2789.1z"/>
	<path class="st7" d="M2938.8,270.2h-29.7v177h-33v-177h-31.8v-33h94.5L2938.8,270.2z"/>
	<path class="st7" d="M3047.1,237.2v33h-52.8v39.3h42v33h-42v71.7h52.8v33h-85.8V309.6h33l-33-65.1v-7.2H3047.1L3047.1,237.2z"/>
	<path class="st7" d="M3150.4,239.2c2.8,1.2,5.4,3,7.5,5.2c2.2,2.3,3.9,4.9,5.1,7.8c1.3,2.9,1.9,6.1,1.9,9.3v162
		c0.1,6.3-2.4,12.4-7,16.8c-4.4,4.5-10.4,7-16.6,6.9h-71.7V309.6h33v104.7h29.4v-144h-29.4v39.3l-33-65.4v-6.9h71.7
		C3144.4,237.2,3147.5,237.9,3150.4,239.2z"/>
</g>
</svg>
